<?xml version="1.0" standalone="no"?>
<!DOCTYPE svg PUBLIC "-//W3C//DTD SVG 20010904//EN"
 "http://www.w3.org/TR/2001/REC-SVG-20010904/DTD/svg10.dtd">
<svg version="1.0" xmlns="http://www.w3.org/2000/svg"
 width="400.000000pt" height="400.000000pt" viewBox="0 0 400.000000 400.000000"
 preserveAspectRatio="xMidYMid meet">
<metadata>
Created by potrace 1.11, written by Peter Selinger 2001-2013
</metadata>
<g transform="translate(0.000000,400.000000) scale(0.100000,-0.100000)"
fill="#000000" stroke="none">
<path d="M191 3035 c-90 -91 -161 -169 -159 -174 1 -5 127 -112 278 -237 151
-125 280 -233 286 -238 6 -6 33 -29 60 -51 26 -22 87 -72 134 -110 47 -39 128
-106 180 -149 52 -43 96 -81 97 -85 1 -3 -32 -33 -74 -66 -41 -33 -80 -65 -86
-71 -7 -5 -79 -66 -162 -133 -82 -68 -167 -137 -187 -155 -20 -17 -147 -121
-282 -231 -135 -110 -244 -205 -243 -212 4 -23 317 -334 329 -327 7 4 21 15
33 25 11 9 81 68 155 130 74 63 140 118 146 124 6 5 32 28 59 50 52 43 623
524 690 581 22 19 106 89 187 157 81 67 147 127 147 132 0 6 -35 38 -77 73
-42 34 -91 75 -109 90 -17 15 -64 55 -105 88 -40 34 -84 72 -98 84 -14 11 -34
29 -45 38 -153 128 -335 281 -355 298 -33 29 -473 398 -535 449 -26 22 -53 45
-59 50 -42 38 -35 43 -205 -130z"/>
<path d="M3519 3092 c-69 -59 -147 -125 -174 -147 -26 -22 -53 -45 -59 -50 -6
-6 -112 -95 -236 -199 -124 -103 -237 -198 -251 -211 -14 -12 -97 -82 -185
-156 -87 -73 -161 -135 -164 -138 -3 -4 -45 -40 -95 -81 -49 -41 -100 -84
-113 -96 l-23 -21 208 -176 c227 -192 447 -377 768 -647 114 -96 262 -221 329
-277 67 -57 123 -103 127 -103 3 0 79 75 169 166 l163 167 -35 31 c-33 29
-391 327 -446 371 -141 113 -562 469 -562 474 0 4 52 50 116 102 64 52 130
106 148 120 55 47 722 595 751 617 28 22 28 22 9 43 -38 43 -312 319 -315 318
-2 0 -61 -48 -130 -107z"/>
</g>
</svg>
